<svg width="24" height="25" viewBox="0 0 24 25" fill="none" xmlns="http://www.w3.org/2000/svg">
<path d="M12 24.4998C12.7956 24.4998 13.5587 24.1838 14.1213 23.6212C14.6839 23.0586 15 22.2955 15 21.4998H9C9 22.2955 9.31607 23.0586 9.87868 23.6212C10.4413 24.1838 11.2044 24.4998 12 24.4998ZM12 3.37685L10.8045 3.61835C9.44844 3.89465 8.2295 4.631 7.35398 5.70278C6.47846 6.77456 6.00015 8.11593 6 9.49985C6 10.4418 5.799 12.7953 5.3115 15.1128C5.0715 16.2633 4.7475 17.4618 4.317 18.4998H19.683C19.2525 17.4618 18.93 16.2648 18.6885 15.1128C18.201 12.7953 18 10.4418 18 9.49985C17.9995 8.11618 17.521 6.77517 16.6455 5.7037C15.7701 4.63223 14.5513 3.8961 13.1955 3.61985L12 3.37535V3.37685ZM21.33 18.4998C21.6645 19.1703 22.0515 19.7013 22.5 19.9998H1.5C1.9485 19.7013 2.3355 19.1703 2.67 18.4998C4.02 15.7998 4.5 10.8198 4.5 9.49985C4.5 5.86985 7.08 2.83985 10.5075 2.14835C10.4866 1.93978 10.5096 1.72914 10.5751 1.53001C10.6405 1.33088 10.747 1.14768 10.8876 0.992235C11.0283 0.836787 11.1999 0.712539 11.3915 0.627504C11.5831 0.542469 11.7904 0.498535 12 0.498535C12.2096 0.498535 12.4169 0.542469 12.6085 0.627504C12.8001 0.712539 12.9717 0.836787 13.1124 0.992235C13.253 1.14768 13.3595 1.33088 13.4249 1.53001C13.4904 1.72914 13.5134 1.93978 13.4925 2.14835C15.1879 2.4932 16.7121 3.41339 17.8069 4.7531C18.9016 6.09281 19.4998 7.76971 19.5 9.49985C19.5 10.8198 19.98 15.7998 21.33 18.4998Z" fill="black"/>
</svg>
