<svg width="21" height="20" viewBox="0 0 21 20" fill="none" xmlns="http://www.w3.org/2000/svg">
<path d="M3 5C3 4.33696 3.26339 3.70107 3.73223 3.23223C4.20107 2.76339 4.83696 2.5 5.5 2.5H13C13.663 2.5 14.2989 2.76339 14.7678 3.23223C15.2366 3.70107 15.5 4.33696 15.5 5V19.375C15.4999 19.4881 15.4692 19.599 15.4111 19.6959C15.353 19.7929 15.2697 19.8723 15.17 19.9257C15.0703 19.979 14.9581 20.0044 14.8451 19.999C14.7322 19.9936 14.6229 19.9576 14.5287 19.895L9.25 16.3762L3.97125 19.895C3.87713 19.9576 3.76779 19.9936 3.65486 19.999C3.54194 20.0044 3.42967 19.979 3.33 19.9257C3.23033 19.8723 3.14701 19.7929 3.08889 19.6959C3.03078 19.599 3.00006 19.4881 3 19.375V5ZM5.5 3.75C5.16848 3.75 4.85054 3.8817 4.61612 4.11612C4.3817 4.35054 4.25 4.66848 4.25 5V18.2075L8.90375 15.105C9.00633 15.0367 9.12679 15.0003 9.25 15.0003C9.37321 15.0003 9.49367 15.0367 9.59625 15.105L14.25 18.2075V5C14.25 4.66848 14.1183 4.35054 13.8839 4.11612C13.6495 3.8817 13.3315 3.75 13 3.75H5.5Z" fill="#03488B"/>
<path d="M5.83496 1.25H15.5C15.8315 1.25 16.1494 1.3817 16.3838 1.61612C16.6183 1.85054 16.75 2.16848 16.75 2.5V17.21L17.0287 17.395C17.1228 17.4576 17.2322 17.4936 17.3451 17.499C17.458 17.5044 17.5703 17.479 17.67 17.4257C17.7696 17.3723 17.853 17.2929 17.9111 17.1959C17.9692 17.099 17.9999 16.9881 18 16.875V2.5C18 1.83696 17.7366 1.20107 17.2677 0.732233C16.7989 0.263392 16.163 0 15.5 0L7.99996 0C7.56113 1.1148e-05 7.13003 0.115532 6.75 0.334952C6.36996 0.554373 6.05438 0.869961 5.83496 1.25Z" fill="#03488B"/>
</svg>
