<svg width="12" height="13" viewBox="0 0 12 13" fill="none" xmlns="http://www.w3.org/2000/svg">
<path d="M1.5 3.5C1.5 3.10218 1.65804 2.72064 1.93934 2.43934C2.22064 2.15804 2.60218 2 3 2H7.5C7.89782 2 8.27936 2.15804 8.56066 2.43934C8.84196 2.72064 9 3.10218 9 3.5V12.125C8.99997 12.1928 8.98153 12.2594 8.94666 12.3176C8.9118 12.3758 8.8618 12.4234 8.802 12.4554C8.7422 12.4874 8.67484 12.5026 8.60708 12.4994C8.53933 12.4961 8.47372 12.4746 8.41725 12.437L5.25 10.3258L2.08275 12.437C2.02628 12.4746 1.96067 12.4961 1.89292 12.4994C1.82516 12.5026 1.7578 12.4874 1.698 12.4554C1.6382 12.4234 1.5882 12.3758 1.55334 12.3176C1.51847 12.2594 1.50004 12.1928 1.5 12.125V3.5ZM3 2.75C2.80109 2.75 2.61032 2.82902 2.46967 2.96967C2.32902 3.11032 2.25 3.30109 2.25 3.5V11.4245L5.04225 9.563C5.1038 9.52204 5.17607 9.50019 5.25 9.50019C5.32393 9.50019 5.3962 9.52204 5.45775 9.563L8.25 11.4245V3.5C8.25 3.30109 8.17098 3.11032 8.03033 2.96967C7.88968 2.82902 7.69891 2.75 7.5 2.75H3Z" fill="white"/>
<path d="M3.20117 1.25H9.00017C9.19908 1.25 9.38985 1.32902 9.5305 1.46967C9.67115 1.61032 9.75017 1.80109 9.75017 2V10.826L9.91742 10.937C9.97389 10.9746 10.0395 10.9961 10.1073 10.9994C10.175 11.0026 10.2424 10.9874 10.3022 10.9554C10.362 10.9234 10.412 10.8758 10.4468 10.8176C10.4817 10.7594 10.5001 10.6928 10.5002 10.625V2C10.5002 1.60218 10.3421 1.22064 10.0608 0.93934C9.77953 0.658035 9.398 0.5 9.00017 0.5H4.50017C4.23687 0.500007 3.97821 0.569319 3.75019 0.700971C3.52217 0.832624 3.33282 1.02198 3.20117 1.25Z" fill="white"/>
</svg>
