<svg width="20" height="21" viewBox="0 0 20 21" fill="none" xmlns="http://www.w3.org/2000/svg">
<path fill-rule="evenodd" clip-rule="evenodd" d="M0 6.75C0 6.08696 0.263392 5.45107 0.732233 4.98223C1.20107 4.51339 1.83696 4.25 2.5 4.25H11.875C12.4814 4.24993 13.0671 4.47024 13.5231 4.86991C13.9791 5.26958 14.2743 5.82136 14.3538 6.4225L18.2413 4.695C18.4315 4.61021 18.64 4.57433 18.8477 4.59061C19.0554 4.60688 19.2557 4.67481 19.4304 4.7882C19.6052 4.9016 19.7488 5.05687 19.8483 5.2399C19.9478 5.42294 19.9999 5.62793 20 5.83625V15.1637C19.9998 15.3719 19.9477 15.5767 19.8483 15.7596C19.7488 15.9425 19.6053 16.0977 19.4308 16.211C19.2562 16.3244 19.0561 16.3924 18.8486 16.4088C18.641 16.4252 18.4327 16.3895 18.2425 16.305L14.3538 14.5775C14.2743 15.1786 13.9791 15.7304 13.5231 16.1301C13.0671 16.5298 12.4814 16.7501 11.875 16.75H2.5C1.83696 16.75 1.20107 16.4866 0.732233 16.0178C0.263392 15.5489 0 14.913 0 14.25V6.75ZM14.375 13.2188L18.75 15.1637V5.83625L14.375 7.78125V13.2188ZM2.5 5.5C2.16848 5.5 1.85054 5.6317 1.61612 5.86612C1.3817 6.10054 1.25 6.41848 1.25 6.75V14.25C1.25 14.5815 1.3817 14.8995 1.61612 15.1339C1.85054 15.3683 2.16848 15.5 2.5 15.5H11.875C12.2065 15.5 12.5245 15.3683 12.7589 15.1339C12.9933 14.8995 13.125 14.5815 13.125 14.25V6.75C13.125 6.41848 12.9933 6.10054 12.7589 5.86612C12.5245 5.6317 12.2065 5.5 11.875 5.5H2.5Z" fill="#03488B"/>
</svg>
