<svg width="20" height="21" viewBox="0 0 20 21" fill="none" xmlns="http://www.w3.org/2000/svg">
<path d="M9.92262 2.96879C9.94712 2.95536 9.97467 2.94847 10.0026 2.94879C10.0301 2.94868 10.0572 2.95556 10.0814 2.96879C10.1099 2.98593 10.1333 3.01057 10.1489 3.04004L18.7201 17.6238C18.7651 17.6988 18.7639 17.7788 18.7226 17.8525C18.7068 17.8828 18.6835 17.9086 18.6551 17.9275C18.6304 17.9427 18.6016 17.9501 18.5726 17.9488H1.43262C1.4036 17.9502 1.37484 17.9428 1.35012 17.9275C1.32168 17.9086 1.29847 17.8828 1.28262 17.8525C1.26202 17.8179 1.25135 17.7782 1.2518 17.7378C1.25224 17.6975 1.26376 17.658 1.28512 17.6238L9.85512 3.04004C9.87074 3.01061 9.89407 2.98598 9.92262 2.96879ZM11.2276 2.40629C11.1039 2.19075 10.9255 2.01167 10.7104 1.88713C10.4953 1.7626 10.2512 1.69702 10.0026 1.69702C9.75408 1.69702 9.50994 1.7626 9.29486 1.88713C9.07977 2.01167 8.90135 2.19075 8.77762 2.40629L0.206366 16.99C-0.364884 17.9625 0.320115 19.1988 1.43137 19.1988H18.5726C19.6839 19.1988 20.3701 17.9613 19.7976 16.99L11.2276 2.40629Z" fill="#03488B"/>
<path d="M8.75244 15.4486C8.75244 15.2845 8.78477 15.1219 8.84759 14.9703C8.91041 14.8186 9.00248 14.6808 9.11856 14.5647C9.23463 14.4487 9.37243 14.3566 9.52409 14.2938C9.67574 14.231 9.83829 14.1986 10.0024 14.1986C10.1666 14.1986 10.3291 14.231 10.4808 14.2938C10.6325 14.3566 10.7703 14.4487 10.8863 14.5647C11.0024 14.6808 11.0945 14.8186 11.1573 14.9703C11.2201 15.1219 11.2524 15.2845 11.2524 15.4486C11.2524 15.7802 11.1207 16.0981 10.8863 16.3325C10.6519 16.5669 10.334 16.6986 10.0024 16.6986C9.67092 16.6986 9.35298 16.5669 9.11856 16.3325C8.88414 16.0981 8.75244 15.7802 8.75244 15.4486ZM8.87494 7.94238C8.8583 7.78468 8.87499 7.62525 8.92394 7.47442C8.97289 7.32359 9.05301 7.18473 9.15909 7.06687C9.26517 6.949 9.39485 6.85475 9.53971 6.79024C9.68456 6.72572 9.84137 6.69238 9.99994 6.69238C10.1585 6.69238 10.3153 6.72572 10.4602 6.79024C10.605 6.85475 10.7347 6.949 10.8408 7.06687C10.9469 7.18473 11.027 7.32359 11.0759 7.47442C11.1249 7.62525 11.1416 7.78468 11.1249 7.94238L10.6874 12.3261C10.6727 12.4983 10.5939 12.6588 10.4666 12.7757C10.3393 12.8926 10.1728 12.9574 9.99994 12.9574C9.8271 12.9574 9.66055 12.8926 9.53325 12.7757C9.40594 12.6588 9.32714 12.4983 9.31244 12.3261L8.87494 7.94238Z" fill="#03488B"/>
</svg>
