<svg width="20" height="21" viewBox="0 0 20 21" fill="none" xmlns="http://www.w3.org/2000/svg">
<path fill-rule="evenodd" clip-rule="evenodd" d="M10 1.75002C9.50754 1.75002 9.01991 1.84702 8.56494 2.03548C8.10997 2.22393 7.69657 2.50015 7.34835 2.84837C7.00013 3.19659 6.72391 3.60999 6.53545 4.06496C6.347 4.51993 6.25 5.00757 6.25 5.50002C6.25 5.99248 6.347 6.48012 6.53545 6.93509C6.72391 7.39006 7.00013 7.80346 7.34835 8.15168C7.69657 8.4999 8.10997 8.77612 8.56494 8.96457C9.01991 9.15303 9.50754 9.25002 10 9.25002C10.9946 9.25002 11.9484 8.85494 12.6517 8.15168C13.3549 7.44841 13.75 6.49459 13.75 5.50002C13.75 4.50546 13.3549 3.55164 12.6517 2.84837C11.9484 2.14511 10.9946 1.75002 10 1.75002ZM5 5.50002C5.00009 4.53781 5.27782 3.59605 5.79987 2.78776C6.32191 1.97948 7.0661 1.33899 7.94313 0.943158C8.82016 0.547327 9.79278 0.412965 10.7443 0.556196C11.6958 0.699426 12.5857 1.11416 13.3074 1.75065C14.029 2.38713 14.5517 3.21831 14.8126 4.14447C15.0736 5.07062 15.0617 6.05241 14.7786 6.97201C14.4954 7.89161 13.9529 8.70997 13.2161 9.32889C12.4794 9.94781 11.5797 10.341 10.625 10.4613V17.375C10.625 17.5408 10.5592 17.6998 10.4419 17.817C10.3247 17.9342 10.1658 18 10 18C9.83424 18 9.67527 17.9342 9.55806 17.817C9.44085 17.6998 9.375 17.5408 9.375 17.375V10.4625C8.16621 10.3102 7.05461 9.72182 6.24902 8.80782C5.44343 7.89382 4.99928 6.71712 5 5.49878V5.50002ZM8.11625 16.2175C8.14336 16.381 8.10447 16.5485 8.00814 16.6832C7.9118 16.818 7.7659 16.909 7.6025 16.9363C6.7125 17.0838 6.0025 17.305 5.53375 17.5525C5.36155 17.6353 5.20506 17.7474 5.07125 17.8838C5.041 17.9167 5.01687 17.9548 5 17.9963V18L5.0025 18.01C5.00742 18.0246 5.01414 18.0384 5.0225 18.0513C5.07184 18.1236 5.13313 18.187 5.20375 18.2388C5.41 18.4013 5.7475 18.5763 6.22 18.7325C7.15875 19.045 8.495 19.25 10 19.25C11.505 19.25 12.8413 19.0463 13.78 18.7325C14.2525 18.575 14.59 18.4013 14.7962 18.2388C14.8673 18.1871 14.929 18.1237 14.9788 18.0513C14.9867 18.0383 14.993 18.0245 14.9975 18.01L15 18V17.995C14.9831 17.9536 14.959 17.9155 14.9288 17.8825C14.7949 17.7466 14.6384 17.6349 14.4662 17.5525C13.9963 17.305 13.2875 17.0838 12.3975 16.9363C12.3146 16.925 12.2348 16.8973 12.1628 16.8546C12.0908 16.812 12.0282 16.7553 11.9785 16.688C11.9288 16.6207 11.8932 16.5441 11.8737 16.4627C11.8541 16.3814 11.8512 16.2969 11.8649 16.2144C11.8786 16.1319 11.9088 16.0529 11.9536 15.9823C11.9984 15.9116 12.0569 15.8507 12.1257 15.8031C12.1945 15.7554 12.2721 15.7221 12.354 15.7051C12.4359 15.688 12.5204 15.6876 12.6025 15.7038C13.565 15.8625 14.4175 16.1138 15.0487 16.4463C15.625 16.75 16.25 17.25 16.25 18C16.25 18.5325 15.925 18.94 15.57 19.2213C15.2075 19.5063 14.72 19.7375 14.175 19.9188C13.0775 20.285 11.6013 20.5 10 20.5C8.39875 20.5 6.9225 20.285 5.825 19.9188C5.28 19.7375 4.7925 19.5063 4.43 19.2213C4.075 18.94 3.75 18.5325 3.75 18C3.75 17.2513 4.375 16.75 4.95125 16.4463C5.5825 16.1138 6.435 15.8625 7.3975 15.7038C7.56093 15.6767 7.72844 15.7156 7.86321 15.8119C7.99798 15.9082 8.08899 16.0541 8.11625 16.2175Z" fill="#6C6E79"/>
</svg>
