<svg width="16" height="17" viewBox="0 0 16 17" fill="none" xmlns="http://www.w3.org/2000/svg">
<path d="M11.2512 0.567953C11.3491 0.624692 11.4248 0.712944 11.466 0.818291C11.5073 0.923639 11.5116 1.03985 11.4782 1.14795L9.6772 6.99995H13.0002C13.0979 6.99992 13.1934 7.02847 13.275 7.08211C13.3566 7.13574 13.4207 7.21209 13.4594 7.30175C13.4981 7.3914 13.5098 7.49043 13.4928 7.58661C13.4759 7.68278 13.4312 7.7719 13.3642 7.84295L5.3642 16.343C5.28679 16.4253 5.18379 16.4789 5.07197 16.4952C4.96016 16.5115 4.84613 16.4894 4.74847 16.4326C4.65081 16.3757 4.57528 16.2875 4.53419 16.1822C4.4931 16.077 4.48887 15.9609 4.5222 15.853L6.3232 9.99995H3.0002C2.90254 9.99999 2.80702 9.97143 2.72541 9.9178C2.6438 9.86417 2.57968 9.78782 2.54096 9.69816C2.50225 9.60851 2.49064 9.50948 2.50757 9.4133C2.52449 9.31712 2.56921 9.22801 2.6362 9.15695L10.6362 0.656953C10.7135 0.574753 10.8164 0.521122 10.928 0.504782C11.0397 0.488442 11.1536 0.510353 11.2512 0.566953V0.567953ZM4.1572 8.99995H7.0002C7.07845 8.99994 7.15561 9.01829 7.22547 9.05353C7.29533 9.08877 7.35595 9.13991 7.40245 9.20285C7.44895 9.26578 7.48002 9.33875 7.49318 9.41588C7.50633 9.49302 7.5012 9.57216 7.4782 9.64695L6.1102 14.09L11.8422 7.99995H9.0002C8.92195 7.99997 8.84479 7.98162 8.77493 7.94638C8.70506 7.91114 8.64444 7.86 8.59795 7.79706C8.55145 7.73413 8.52038 7.66116 8.50722 7.58402C8.49406 7.50689 8.49919 7.42774 8.5222 7.35295L9.8902 2.90995L4.1572 8.99995Z" fill="black"/>
</svg>
