<svg width="17" height="17" viewBox="0 0 17 17" fill="none" xmlns="http://www.w3.org/2000/svg">
<path d="M8.5 15.5C6.64348 15.5 4.86301 14.7625 3.55025 13.4497C2.2375 12.137 1.5 10.3565 1.5 8.5C1.5 6.64348 2.2375 4.86301 3.55025 3.55025C4.86301 2.2375 6.64348 1.5 8.5 1.5C10.3565 1.5 12.137 2.2375 13.4497 3.55025C14.7625 4.86301 15.5 6.64348 15.5 8.5C15.5 10.3565 14.7625 12.137 13.4497 13.4497C12.137 14.7625 10.3565 15.5 8.5 15.5ZM8.5 16.5C10.6217 16.5 12.6566 15.6571 14.1569 14.1569C15.6571 12.6566 16.5 10.6217 16.5 8.5C16.5 6.37827 15.6571 4.34344 14.1569 2.84315C12.6566 1.34285 10.6217 0.5 8.5 0.5C6.37827 0.5 4.34344 1.34285 2.84315 2.84315C1.34285 4.34344 0.5 6.37827 0.5 8.5C0.5 10.6217 1.34285 12.6566 2.84315 14.1569C4.34344 15.6571 6.37827 16.5 8.5 16.5Z" fill="black"/>
<path d="M11.4703 5.47004C11.4632 5.47694 11.4565 5.48429 11.4503 5.49204L7.97734 9.91704L5.88434 7.82304C5.74216 7.69056 5.55412 7.61843 5.35982 7.62186C5.16551 7.62529 4.98013 7.704 4.84272 7.84141C4.7053 7.97883 4.62659 8.16421 4.62316 8.35851C4.61974 8.55281 4.69186 8.74086 4.82434 8.88304L7.47034 11.53C7.54162 11.6012 7.6265 11.6573 7.71992 11.6949C7.81334 11.7325 7.91339 11.751 8.01408 11.7491C8.11478 11.7472 8.21407 11.7251 8.30604 11.684C8.398 11.643 8.48074 11.5838 8.54934 11.51L12.5413 6.52004C12.6773 6.37737 12.7516 6.18693 12.7482 5.9899C12.7449 5.79288 12.6641 5.60508 12.5234 5.46713C12.3827 5.32918 12.1933 5.25214 11.9963 5.25269C11.7992 5.25323 11.6103 5.33131 11.4703 5.47004Z" fill="black"/>
</svg>
