<svg width="17" height="17" viewBox="0 0 17 17" fill="none" xmlns="http://www.w3.org/2000/svg">
<path d="M8.5 15.5C6.64348 15.5 4.86301 14.7625 3.55025 13.4497C2.2375 12.137 1.5 10.3565 1.5 8.5C1.5 6.64348 2.2375 4.86301 3.55025 3.55025C4.86301 2.2375 6.64348 1.5 8.5 1.5C10.3565 1.5 12.137 2.2375 13.4497 3.55025C14.7625 4.86301 15.5 6.64348 15.5 8.5C15.5 10.3565 14.7625 12.137 13.4497 13.4497C12.137 14.7625 10.3565 15.5 8.5 15.5ZM8.5 16.5C10.6217 16.5 12.6566 15.6571 14.1569 14.1569C15.6571 12.6566 16.5 10.6217 16.5 8.5C16.5 6.37827 15.6571 4.34344 14.1569 2.84315C12.6566 1.34285 10.6217 0.5 8.5 0.5C6.37827 0.5 4.34344 1.34285 2.84315 2.84315C1.34285 4.34344 0.5 6.37827 0.5 8.5C0.5 10.6217 1.34285 12.6566 2.84315 14.1569C4.34344 15.6571 6.37827 16.5 8.5 16.5Z" fill="black"/>
<path d="M5.14592 5.14592C5.19236 5.09935 5.24754 5.06241 5.30828 5.0372C5.36903 5.012 5.43415 4.99902 5.49992 4.99902C5.56568 4.99902 5.63081 5.012 5.69155 5.0372C5.7523 5.06241 5.80747 5.09935 5.85392 5.14592L8.49992 7.79292L11.1459 5.14592C11.1924 5.09943 11.2476 5.06255 11.3083 5.03739C11.3691 5.01223 11.4342 4.99929 11.4999 4.99929C11.5657 4.99929 11.6308 5.01223 11.6915 5.03739C11.7522 5.06255 11.8074 5.09943 11.8539 5.14592C11.9004 5.1924 11.9373 5.24759 11.9624 5.30833C11.9876 5.36907 12.0005 5.43417 12.0005 5.49992C12.0005 5.56566 11.9876 5.63076 11.9624 5.6915C11.9373 5.75224 11.9004 5.80743 11.8539 5.85392L9.20692 8.49992L11.8539 11.1459C11.9004 11.1924 11.9373 11.2476 11.9624 11.3083C11.9876 11.3691 12.0005 11.4342 12.0005 11.4999C12.0005 11.5657 11.9876 11.6308 11.9624 11.6915C11.9373 11.7522 11.9004 11.8074 11.8539 11.8539C11.8074 11.9004 11.7522 11.9373 11.6915 11.9624C11.6308 11.9876 11.5657 12.0005 11.4999 12.0005C11.4342 12.0005 11.3691 11.9876 11.3083 11.9624C11.2476 11.9373 11.1924 11.9004 11.1459 11.8539L8.49992 9.20692L5.85392 11.8539C5.80743 11.9004 5.75224 11.9373 5.6915 11.9624C5.63076 11.9876 5.56566 12.0005 5.49992 12.0005C5.43417 12.0005 5.36907 11.9876 5.30833 11.9624C5.24759 11.9373 5.1924 11.9004 5.14592 11.8539C5.09943 11.8074 5.06255 11.7522 5.03739 11.6915C5.01223 11.6308 4.99929 11.5657 4.99929 11.4999C4.99929 11.4342 5.01223 11.3691 5.03739 11.3083C5.06255 11.2476 5.09943 11.1924 5.14592 11.1459L7.79292 8.49992L5.14592 5.85392C5.09935 5.80747 5.06241 5.7523 5.0372 5.69155C5.012 5.63081 4.99902 5.56568 4.99902 5.49992C4.99902 5.43415 5.012 5.36903 5.0372 5.30828C5.06241 5.24754 5.09935 5.19236 5.14592 5.14592Z" fill="black"/>
</svg>
