<svg width="16" height="17" viewBox="0 0 16 17" fill="none" xmlns="http://www.w3.org/2000/svg">
<path d="M8.5 3.187C9.154 2.498 10.282 2.301 11.612 2.435C12.846 2.559 14.115 2.958 15 3.328V13.251C14.082 12.901 12.893 12.559 11.713 12.441C10.619 12.33 9.435 12.402 8.5 12.933V3.187ZM8 2.283C7.015 1.436 5.587 1.31 4.287 1.44C2.773 1.593 1.245 2.112 0.293 2.545C0.205649 2.58473 0.131575 2.64876 0.079621 2.72944C0.0276667 2.81012 2.65714e-05 2.90404 0 3L0 14C2.3162e-05 14.0837 0.0210371 14.166 0.0611171 14.2394C0.101197 14.3128 0.159062 14.375 0.229411 14.4203C0.29976 14.4656 0.380345 14.4925 0.463783 14.4986C0.547222 14.5046 0.630848 14.4896 0.707 14.455C1.589 14.055 3.01 13.574 4.387 13.435C5.796 13.293 6.977 13.522 7.61 14.312C7.65685 14.3704 7.71622 14.4175 7.78372 14.4499C7.85122 14.4823 7.92513 14.4991 8 14.4991C8.07487 14.4991 8.14878 14.4823 8.21628 14.4499C8.28378 14.4175 8.34315 14.3704 8.39 14.312C9.023 13.522 10.204 13.293 11.612 13.435C12.99 13.574 14.412 14.055 15.293 14.455C15.3692 14.4896 15.4528 14.5046 15.5362 14.4986C15.6197 14.4925 15.7002 14.4656 15.7706 14.4203C15.8409 14.375 15.8988 14.3128 15.9389 14.2394C15.979 14.166 16 14.0837 16 14V3C16 2.90404 15.9723 2.81012 15.9204 2.72944C15.8684 2.64876 15.7944 2.58473 15.707 2.545C14.755 2.112 13.227 1.593 11.713 1.44C10.413 1.309 8.985 1.436 8 2.283Z" fill="#03488B"/>
</svg>
