<svg width="16" height="17" viewBox="0 0 16 17" fill="none" xmlns="http://www.w3.org/2000/svg">
<path d="M1 3.32788C1.885 2.95788 3.154 2.55888 4.388 2.43488C5.718 2.30088 6.846 2.49788 7.5 3.18688V12.9329C6.565 12.4029 5.38 12.3299 4.287 12.4399C3.107 12.5599 1.917 12.9009 1 13.2509V3.32788ZM8.5 3.18688C9.154 2.49788 10.282 2.30088 11.612 2.43488C12.846 2.55888 14.115 2.95788 15 3.32788V13.2509C14.082 12.9009 12.893 12.5589 11.713 12.4409C10.619 12.3299 9.435 12.4019 8.5 12.9329V3.18688ZM8 2.28288C7.015 1.43588 5.587 1.30988 4.287 1.43988C2.773 1.59288 1.245 2.11188 0.293 2.54488C0.205649 2.58461 0.131575 2.64863 0.079621 2.72931C0.0276667 2.80999 2.65714e-05 2.90392 0 2.99988L0 13.9999C2.3162e-05 14.0835 0.0210371 14.1659 0.0611171 14.2393C0.101197 14.3127 0.159062 14.3749 0.229411 14.4202C0.29976 14.4655 0.380345 14.4924 0.463783 14.4984C0.547222 14.5045 0.630848 14.4895 0.707 14.4549C1.589 14.0549 3.01 13.5739 4.387 13.4349C5.796 13.2929 6.977 13.5219 7.61 14.3119C7.65685 14.3703 7.71622 14.4174 7.78372 14.4498C7.85122 14.4822 7.92513 14.499 8 14.499C8.07487 14.499 8.14878 14.4822 8.21628 14.4498C8.28378 14.4174 8.34315 14.3703 8.39 14.3119C9.023 13.5219 10.204 13.2929 11.612 13.4349C12.99 13.5739 14.412 14.0549 15.293 14.4549C15.3692 14.4895 15.4528 14.5045 15.5362 14.4984C15.6197 14.4924 15.7002 14.4655 15.7706 14.4202C15.8409 14.3749 15.8988 14.3127 15.9389 14.2393C15.979 14.1659 16 14.0835 16 13.9999V2.99988C16 2.90392 15.9723 2.80999 15.9204 2.72931C15.8684 2.64863 15.7944 2.58461 15.707 2.54488C14.755 2.11188 13.227 1.59288 11.713 1.43988C10.413 1.30888 8.985 1.43588 8 2.28288Z" fill="#484A54"/>
</svg>
