<svg width="16" height="16" viewBox="0 0 16 16" fill="none" xmlns="http://www.w3.org/2000/svg">
  <path d="M11.3333 2.00001C11.5084 1.82494 11.7163 1.68605 11.9451 1.59129C12.1739 1.49653 12.4187 1.44775 12.6666 1.44775C12.9146 1.44775 13.1593 1.49653 13.3881 1.59129C13.617 1.68605 13.8249 1.82494 14 2.00001C14.1751 2.17508 14.314 2.38297 14.4087 2.61182C14.5035 2.84066 14.5523 3.08542 14.5523 3.33334C14.5523 3.58127 14.5035 3.82603 14.4087 4.05487C14.314 4.28372 14.1751 4.49161 14 4.66668L5.00001 13.6667L1.33334 14.6667L2.33334 11L11.3333 2.00001Z" stroke="#667085" stroke-width="1.33333" stroke-linecap="round" stroke-linejoin="round"/>
</svg>
