<svg width="16" height="17" viewBox="0 0 16 17" fill="none" xmlns="http://www.w3.org/2000/svg">
<path d="M8.354 1.64604C8.30756 1.59948 8.25238 1.56253 8.19164 1.53733C8.13089 1.51212 8.06577 1.49915 8 1.49915C7.93423 1.49915 7.86911 1.51212 7.80837 1.53733C7.74762 1.56253 7.69245 1.59948 7.646 1.64604L1.646 7.64604C1.5996 7.69256 1.56282 7.74777 1.53777 7.80851C1.51272 7.86925 1.49988 7.93433 1.5 8.00004V15C1.5 15.1326 1.55268 15.2598 1.64645 15.3536C1.74022 15.4474 1.86739 15.5 2 15.5H6.5C6.63261 15.5 6.75979 15.4474 6.85355 15.3536C6.94732 15.2598 7 15.1326 7 15V11H9V15C9 15.1326 9.05268 15.2598 9.14645 15.3536C9.24022 15.4474 9.36739 15.5 9.5 15.5H14C14.1326 15.5 14.2598 15.4474 14.3536 15.3536C14.4473 15.2598 14.5 15.1326 14.5 15V8.00004C14.5001 7.93433 14.4873 7.86925 14.4622 7.80851C14.4372 7.74777 14.4004 7.69256 14.354 7.64604L13 6.29304V3.00004C13 2.86743 12.9473 2.74025 12.8536 2.64649C12.7598 2.55272 12.6326 2.50004 12.5 2.50004H11.5C11.3674 2.50004 11.2402 2.55272 11.1464 2.64649C11.0527 2.74025 11 2.86743 11 3.00004V4.29304L8.354 1.64604ZM2.5 14.5V8.20704L8 2.70704L13.5 8.20704V14.5H10V10.5C10 10.3674 9.94732 10.2403 9.85356 10.1465C9.75979 10.0527 9.63261 10 9.5 10H6.5C6.36739 10 6.24022 10.0527 6.14645 10.1465C6.05268 10.2403 6 10.3674 6 10.5V14.5H2.5Z" fill="#484A54"/>
</svg>
