<svg width="16" height="17" viewBox="0 0 16 17" fill="none" xmlns="http://www.w3.org/2000/svg">
<path d="M6.5 14.9999V11.4949C6.5 11.2499 6.75 10.9999 7 10.9999H9C9.25 10.9999 9.5 11.2499 9.5 11.4999V14.9999C9.5 15.1325 9.55268 15.2597 9.64645 15.3535C9.74022 15.4472 9.86739 15.4999 10 15.4999H14C14.1326 15.4999 14.2598 15.4472 14.3536 15.3535C14.4473 15.2597 14.5 15.1325 14.5 14.9999V7.99992C14.5001 7.93421 14.4873 7.86913 14.4622 7.80839C14.4372 7.74764 14.4004 7.69244 14.354 7.64592L13 6.29292V2.99992C13 2.86731 12.9473 2.74013 12.8536 2.64636C12.7598 2.5526 12.6326 2.49992 12.5 2.49992H11.5C11.3674 2.49992 11.2402 2.5526 11.1464 2.64636C11.0527 2.74013 11 2.86731 11 2.99992V4.29292L8.354 1.64592C8.30756 1.59935 8.25238 1.56241 8.19164 1.5372C8.13089 1.512 8.06577 1.49902 8 1.49902C7.93423 1.49902 7.86911 1.512 7.80837 1.5372C7.74762 1.56241 7.69245 1.59935 7.646 1.64592L1.646 7.64592C1.5996 7.69244 1.56282 7.74764 1.53777 7.80839C1.51272 7.86913 1.49988 7.93421 1.5 7.99992V14.9999C1.5 15.1325 1.55268 15.2597 1.64645 15.3535C1.74022 15.4472 1.86739 15.4999 2 15.4999H6C6.13261 15.4999 6.25979 15.4472 6.35355 15.3535C6.44732 15.2597 6.5 15.1325 6.5 14.9999Z" fill="#03488B"/>
</svg>
