<svg width="17" height="16" viewBox="0 0 17 16" fill="none" xmlns="http://www.w3.org/2000/svg">
<path d="M6.1665 8C6.96215 8 7.72522 7.68393 8.28782 7.12132C8.85043 6.55871 9.1665 5.79565 9.1665 5C9.1665 4.20435 8.85043 3.44129 8.28782 2.87868C7.72522 2.31607 6.96215 2 6.1665 2C5.37085 2 4.60779 2.31607 4.04518 2.87868C3.48257 3.44129 3.1665 4.20435 3.1665 5C3.1665 5.79565 3.48257 6.55871 4.04518 7.12132C4.60779 7.68393 5.37085 8 6.1665 8ZM8.1665 5C8.1665 5.53043 7.95579 6.03914 7.58072 6.41421C7.20564 6.78929 6.69694 7 6.1665 7C5.63607 7 5.12736 6.78929 4.75229 6.41421C4.37722 6.03914 4.1665 5.53043 4.1665 5C4.1665 4.46957 4.37722 3.96086 4.75229 3.58579C5.12736 3.21071 5.63607 3 6.1665 3C6.69694 3 7.20564 3.21071 7.58072 3.58579C7.95579 3.96086 8.1665 4.46957 8.1665 5ZM12.1665 13C12.1665 14 11.1665 14 11.1665 14H1.1665C1.1665 14 0.166504 14 0.166504 13C0.166504 12 1.1665 9 6.1665 9C11.1665 9 12.1665 12 12.1665 13ZM11.1665 12.996C11.1655 12.75 11.0125 12.01 10.3345 11.332C9.6825 10.68 8.4555 10 6.1665 10C3.8765 10 2.6505 10.68 1.9985 11.332C1.3205 12.01 1.1685 12.75 1.1665 12.996H11.1665Z" fill="#03488B"/>
<path fill-rule="evenodd" clip-rule="evenodd" d="M16.0206 5.14598C16.0672 5.19242 16.1042 5.2476 16.1294 5.30834C16.1546 5.36909 16.1675 5.43421 16.1675 5.49998C16.1675 5.56575 16.1546 5.63087 16.1294 5.69161C16.1042 5.75236 16.0672 5.80753 16.0206 5.85398L13.0206 8.85398C12.9742 8.90054 12.919 8.93748 12.8583 8.96269C12.7975 8.9879 12.7324 9.00087 12.6666 9.00087C12.6009 9.00087 12.5358 8.9879 12.475 8.96269C12.4143 8.93748 12.3591 8.90054 12.3126 8.85398L10.8126 7.35398C10.7188 7.26009 10.666 7.13275 10.666 6.99998C10.666 6.8672 10.7188 6.73986 10.8126 6.64598C10.9065 6.55209 11.0339 6.49935 11.1666 6.49935C11.2994 6.49935 11.4268 6.55209 11.5206 6.64598L12.6666 7.79298L15.3126 5.14598C15.3591 5.09941 15.4143 5.06247 15.475 5.03727C15.5358 5.01206 15.6009 4.99908 15.6666 4.99908C15.7324 4.99908 15.7975 5.01206 15.8583 5.03727C15.919 5.06247 15.9742 5.09941 16.0206 5.14598Z" fill="#03488B"/>
</svg>
