<svg width="13" height="18" viewBox="0 0 13 18" fill="none" xmlns="http://www.w3.org/2000/svg">
<path d="M0.5 3C0.5 2.33696 0.763392 1.70107 1.23223 1.23223C1.70107 0.763392 2.33696 0.5 3 0.5H10.5C11.163 0.5 11.7989 0.763392 12.2678 1.23223C12.7366 1.70107 13 2.33696 13 3V17.375C12.9999 17.4881 12.9692 17.599 12.9111 17.6959C12.853 17.7929 12.7697 17.8723 12.67 17.9257C12.5703 17.979 12.4581 18.0044 12.3451 17.999C12.2322 17.9936 12.1229 17.9576 12.0287 17.895L6.75 14.3762L1.47125 17.895C1.37713 17.9576 1.26779 17.9936 1.15486 17.999C1.04194 18.0044 0.929666 17.979 0.829999 17.9257C0.730332 17.8723 0.647005 17.7929 0.588893 17.6959C0.53078 17.599 0.500058 17.4881 0.5 17.375V3ZM3 1.75C2.66848 1.75 2.35054 1.8817 2.11612 2.11612C1.8817 2.35054 1.75 2.66848 1.75 3V16.2075L6.40375 13.105C6.50633 13.0367 6.62679 13.0003 6.75 13.0003C6.87321 13.0003 6.99367 13.0367 7.09625 13.105L11.75 16.2075V3C11.75 2.66848 11.6183 2.35054 11.3839 2.11612C11.1495 1.8817 10.8315 1.75 10.5 1.75H3Z" fill="#03488B"/>
</svg>
