<svg width="17" height="16" viewBox="0 0 17 16" fill="none" xmlns="http://www.w3.org/2000/svg">
<path d="M8.3335 15C6.47698 15 4.6965 14.2625 3.38375 12.9497C2.07099 11.637 1.3335 9.85652 1.3335 8C1.3335 6.14348 2.07099 4.36301 3.38375 3.05025C4.6965 1.7375 6.47698 1 8.3335 1C10.19 1 11.9705 1.7375 13.2832 3.05025C14.596 4.36301 15.3335 6.14348 15.3335 8C15.3335 9.85652 14.596 11.637 13.2832 12.9497C11.9705 14.2625 10.19 15 8.3335 15ZM8.3335 16C10.4552 16 12.4901 15.1571 13.9904 13.6569C15.4906 12.1566 16.3335 10.1217 16.3335 8C16.3335 5.87827 15.4906 3.84344 13.9904 2.34315C12.4901 0.842855 10.4552 0 8.3335 0C6.21176 0 4.17693 0.842855 2.67664 2.34315C1.17635 3.84344 0.333496 5.87827 0.333496 8C0.333496 10.1217 1.17635 12.1566 2.67664 13.6569C4.17693 15.1571 6.21176 16 8.3335 16Z" fill="#03488B"/>
<path d="M6.6045 5.05499C6.68628 5.01287 6.7781 4.99414 6.86984 5.00084C6.96159 5.00755 7.0497 5.03943 7.1245 5.09299L10.6245 7.59299C10.6893 7.63924 10.7421 7.7003 10.7786 7.77109C10.815 7.84189 10.8341 7.92036 10.8341 7.99999C10.8341 8.07961 10.815 8.15809 10.7786 8.22888C10.7421 8.29967 10.6893 8.36073 10.6245 8.40699L7.1245 10.907C7.04973 10.9605 6.96166 10.9924 6.86996 10.9991C6.77826 11.0058 6.68649 10.9871 6.60473 10.945C6.52298 10.9029 6.4544 10.8391 6.40655 10.7606C6.3587 10.6821 6.33342 10.5919 6.3335 10.5V5.49999C6.3334 5.40807 6.35864 5.3179 6.40645 5.2394C6.45426 5.16089 6.52279 5.09708 6.6045 5.05499Z" fill="#03488B"/>
</svg>
