<svg width="16" height="16" viewBox="0 0 16 16" fill="none" xmlns="http://www.w3.org/2000/svg">
<path d="M12.854 0.145905C12.7603 0.0521694 12.6331 -0.000488281 12.5005 -0.000488281C12.368 -0.000488281 12.2408 0.0521694 12.147 0.145905L10.5 1.7929L14.207 5.49991L15.854 3.8539C15.9006 3.80746 15.9376 3.75228 15.9628 3.69154C15.988 3.63079 16.0009 3.56567 16.0009 3.4999C16.0009 3.43414 15.988 3.36902 15.9628 3.30827C15.9376 3.24753 15.9006 3.19235 15.854 3.1459L12.854 0.145905ZM13.5 6.2069L9.79305 2.4999L3.29305 8.9999H3.50005C3.63266 8.9999 3.75984 9.05258 3.8536 9.14635C3.94737 9.24012 4.00005 9.3673 4.00005 9.4999V9.9999H4.50005C4.63266 9.9999 4.75983 10.0526 4.8536 10.1464C4.94737 10.2401 5.00005 10.3673 5.00005 10.4999V10.9999H5.50005C5.63266 10.9999 5.75983 11.0526 5.8536 11.1464C5.94737 11.2401 6.00005 11.3673 6.00005 11.4999V11.9999H6.50005C6.63266 11.9999 6.75983 12.0526 6.8536 12.1464C6.94737 12.2401 7.00005 12.3673 7.00005 12.4999V12.7069L13.5 6.2069ZM6.03205 13.6749C6.01101 13.619 6.00017 13.5597 6.00005 13.4999V12.9999H5.50005C5.36744 12.9999 5.24026 12.9472 5.1465 12.8535C5.05273 12.7597 5.00005 12.6325 5.00005 12.4999V11.9999H4.50005C4.36744 11.9999 4.24026 11.9472 4.1465 11.8535C4.05273 11.7597 4.00005 11.6325 4.00005 11.4999V10.9999H3.50005C3.36744 10.9999 3.24026 10.9472 3.1465 10.8535C3.05273 10.7597 3.00005 10.6325 3.00005 10.4999V9.9999H2.50005C2.44027 9.99981 2.381 9.98897 2.32505 9.96791L2.14605 10.1459C2.0984 10.1939 2.06098 10.251 2.03605 10.3139L0.0360502 15.3139C-0.000320453 15.4048 -0.00922395 15.5043 0.0104435 15.6002C0.0301109 15.6961 0.0774844 15.7841 0.146691 15.8533C0.215897 15.9225 0.303893 15.9698 0.39977 15.9895C0.495646 16.0092 0.595186 16.0003 0.68605 15.9639L5.68605 13.9639C5.74891 13.939 5.80606 13.9016 5.85405 13.8539L6.03205 13.6759V13.6749Z" fill="#03488B"/>
</svg>
