<svg width="16" height="17" viewBox="0 0 16 17" fill="none" xmlns="http://www.w3.org/2000/svg">
<path d="M10 14C10 14.1326 10.0527 14.2598 10.1464 14.3536C10.2402 14.4473 10.3674 14.5 10.5 14.5H11.5C11.6326 14.5 11.7598 14.4473 11.8536 14.3536C11.9473 14.2598 12 14.1326 12 14V8C12 7.86739 11.9473 7.74021 11.8536 7.64645C11.7598 7.55268 11.6326 7.5 11.5 7.5H10.5C10.3674 7.5 10.2402 7.55268 10.1464 7.64645C10.0527 7.74021 10 7.86739 10 8V14ZM7.5 14.5C7.36739 14.5 7.24021 14.4473 7.14645 14.3536C7.05268 14.2598 7 14.1326 7 14V10C7 9.86739 7.05268 9.74021 7.14645 9.64645C7.24021 9.55268 7.36739 9.5 7.5 9.5H8.5C8.63261 9.5 8.75979 9.55268 8.85355 9.64645C8.94732 9.74021 9 9.86739 9 10V14C9 14.1326 8.94732 14.2598 8.85355 14.3536C8.75979 14.4473 8.63261 14.5 8.5 14.5H7.5ZM4.5 14.5C4.36739 14.5 4.24021 14.4473 4.14645 14.3536C4.05268 14.2598 4 14.1326 4 14V12C4 11.8674 4.05268 11.7402 4.14645 11.6464C4.24021 11.5527 4.36739 11.5 4.5 11.5H5.5C5.63261 11.5 5.75979 11.5527 5.85355 11.6464C5.94732 11.7402 6 11.8674 6 12V14C6 14.1326 5.94732 14.2598 5.85355 14.3536C5.75979 14.4473 5.63261 14.5 5.5 14.5H4.5Z" fill="#484A54"/>
<path d="M14 14.5V5L9.5 0.5H4C3.46957 0.5 2.96086 0.710714 2.58579 1.08579C2.21071 1.46086 2 1.96957 2 2.5V14.5C2 15.0304 2.21071 15.5391 2.58579 15.9142C2.96086 16.2893 3.46957 16.5 4 16.5H12C12.5304 16.5 13.0391 16.2893 13.4142 15.9142C13.7893 15.5391 14 15.0304 14 14.5ZM9.5 3.5C9.5 3.89782 9.65804 4.27936 9.93934 4.56066C10.2206 4.84196 10.6022 5 11 5H13V14.5C13 14.7652 12.8946 15.0196 12.7071 15.2071C12.5196 15.3946 12.2652 15.5 12 15.5H4C3.73478 15.5 3.48043 15.3946 3.29289 15.2071C3.10536 15.0196 3 14.7652 3 14.5V2.5C3 2.23478 3.10536 1.98043 3.29289 1.79289C3.48043 1.60536 3.73478 1.5 4 1.5H9.5V3.5Z" fill="#484A54"/>
</svg>
