<svg width="16" height="17" viewBox="0 0 16 17" fill="none" xmlns="http://www.w3.org/2000/svg">
<path d="M14 0.5H2C1.46957 0.5 0.960859 0.710714 0.585786 1.08579C0.210714 1.46086 0 1.96957 0 2.5L0 14.5C0 15.0304 0.210714 15.5391 0.585786 15.9142C0.960859 16.2893 1.46957 16.5 2 16.5H14C14.5304 16.5 15.0391 16.2893 15.4142 15.9142C15.7893 15.5391 16 15.0304 16 14.5V2.5C16 1.96957 15.7893 1.46086 15.4142 1.08579C15.0391 0.710714 14.5304 0.5 14 0.5V0.5ZM1 4.357C1 3.884 1.448 3.5 2 3.5H14C14.552 3.5 15 3.884 15 4.357V14.643C15 15.116 14.552 15.5 14 15.5H2C1.448 15.5 1 15.116 1 14.643V4.357Z" fill="#03488B"/>
<path d="M6.5 7.5C6.76522 7.5 7.01957 7.39464 7.20711 7.20711C7.39464 7.01957 7.5 6.76522 7.5 6.5C7.5 6.23478 7.39464 5.98043 7.20711 5.79289C7.01957 5.60536 6.76522 5.5 6.5 5.5C6.23478 5.5 5.98043 5.60536 5.79289 5.79289C5.60536 5.98043 5.5 6.23478 5.5 6.5C5.5 6.76522 5.60536 7.01957 5.79289 7.20711C5.98043 7.39464 6.23478 7.5 6.5 7.5ZM9.5 7.5C9.76522 7.5 10.0196 7.39464 10.2071 7.20711C10.3946 7.01957 10.5 6.76522 10.5 6.5C10.5 6.23478 10.3946 5.98043 10.2071 5.79289C10.0196 5.60536 9.76522 5.5 9.5 5.5C9.23478 5.5 8.98043 5.60536 8.79289 5.79289C8.60536 5.98043 8.5 6.23478 8.5 6.5C8.5 6.76522 8.60536 7.01957 8.79289 7.20711C8.98043 7.39464 9.23478 7.5 9.5 7.5ZM12.5 7.5C12.7652 7.5 13.0196 7.39464 13.2071 7.20711C13.3946 7.01957 13.5 6.76522 13.5 6.5C13.5 6.23478 13.3946 5.98043 13.2071 5.79289C13.0196 5.60536 12.7652 5.5 12.5 5.5C12.2348 5.5 11.9804 5.60536 11.7929 5.79289C11.6054 5.98043 11.5 6.23478 11.5 6.5C11.5 6.76522 11.6054 7.01957 11.7929 7.20711C11.9804 7.39464 12.2348 7.5 12.5 7.5ZM3.5 10.5C3.76522 10.5 4.01957 10.3946 4.20711 10.2071C4.39464 10.0196 4.5 9.76522 4.5 9.5C4.5 9.23478 4.39464 8.98043 4.20711 8.79289C4.01957 8.60536 3.76522 8.5 3.5 8.5C3.23478 8.5 2.98043 8.60536 2.79289 8.79289C2.60536 8.98043 2.5 9.23478 2.5 9.5C2.5 9.76522 2.60536 10.0196 2.79289 10.2071C2.98043 10.3946 3.23478 10.5 3.5 10.5ZM6.5 10.5C6.76522 10.5 7.01957 10.3946 7.20711 10.2071C7.39464 10.0196 7.5 9.76522 7.5 9.5C7.5 9.23478 7.39464 8.98043 7.20711 8.79289C7.01957 8.60536 6.76522 8.5 6.5 8.5C6.23478 8.5 5.98043 8.60536 5.79289 8.79289C5.60536 8.98043 5.5 9.23478 5.5 9.5C5.5 9.76522 5.60536 10.0196 5.79289 10.2071C5.98043 10.3946 6.23478 10.5 6.5 10.5ZM9.5 10.5C9.76522 10.5 10.0196 10.3946 10.2071 10.2071C10.3946 10.0196 10.5 9.76522 10.5 9.5C10.5 9.23478 10.3946 8.98043 10.2071 8.79289C10.0196 8.60536 9.76522 8.5 9.5 8.5C9.23478 8.5 8.98043 8.60536 8.79289 8.79289C8.60536 8.98043 8.5 9.23478 8.5 9.5C8.5 9.76522 8.60536 10.0196 8.79289 10.2071C8.98043 10.3946 9.23478 10.5 9.5 10.5ZM12.5 10.5C12.7652 10.5 13.0196 10.3946 13.2071 10.2071C13.3946 10.0196 13.5 9.76522 13.5 9.5C13.5 9.23478 13.3946 8.98043 13.2071 8.79289C13.0196 8.60536 12.7652 8.5 12.5 8.5C12.2348 8.5 11.9804 8.60536 11.7929 8.79289C11.6054 8.98043 11.5 9.23478 11.5 9.5C11.5 9.76522 11.6054 10.0196 11.7929 10.2071C11.9804 10.3946 12.2348 10.5 12.5 10.5ZM3.5 13.5C3.76522 13.5 4.01957 13.3946 4.20711 13.2071C4.39464 13.0196 4.5 12.7652 4.5 12.5C4.5 12.2348 4.39464 11.9804 4.20711 11.7929C4.01957 11.6054 3.76522 11.5 3.5 11.5C3.23478 11.5 2.98043 11.6054 2.79289 11.7929C2.60536 11.9804 2.5 12.2348 2.5 12.5C2.5 12.7652 2.60536 13.0196 2.79289 13.2071C2.98043 13.3946 3.23478 13.5 3.5 13.5ZM6.5 13.5C6.76522 13.5 7.01957 13.3946 7.20711 13.2071C7.39464 13.0196 7.5 12.7652 7.5 12.5C7.5 12.2348 7.39464 11.9804 7.20711 11.7929C7.01957 11.6054 6.76522 11.5 6.5 11.5C6.23478 11.5 5.98043 11.6054 5.79289 11.7929C5.60536 11.9804 5.5 12.2348 5.5 12.5C5.5 12.7652 5.60536 13.0196 5.79289 13.2071C5.98043 13.3946 6.23478 13.5 6.5 13.5ZM9.5 13.5C9.76522 13.5 10.0196 13.3946 10.2071 13.2071C10.3946 13.0196 10.5 12.7652 10.5 12.5C10.5 12.2348 10.3946 11.9804 10.2071 11.7929C10.0196 11.6054 9.76522 11.5 9.5 11.5C9.23478 11.5 8.98043 11.6054 8.79289 11.7929C8.60536 11.9804 8.5 12.2348 8.5 12.5C8.5 12.7652 8.60536 13.0196 8.79289 13.2071C8.98043 13.3946 9.23478 13.5 9.5 13.5Z" fill="#03488B"/>
</svg>
