<svg width="16" height="16" viewBox="0 0 16 16" fill="none" xmlns="http://www.w3.org/2000/svg">
<path d="M3 14.5C2.60218 14.5 2.22064 14.342 1.93934 14.0607C1.65804 13.7794 1.5 13.3978 1.5 13V3C1.5 2.60218 1.65804 2.22064 1.93934 1.93934C2.22064 1.65804 2.60218 1.5 3 1.5H11C11.1326 1.5 11.2598 1.55268 11.3536 1.64645C11.4473 1.74021 11.5 1.86739 11.5 2C11.5 2.13261 11.4473 2.25979 11.3536 2.35355C11.2598 2.44732 11.1326 2.5 11 2.5H3C2.86739 2.5 2.74021 2.55268 2.64645 2.64645C2.55268 2.74021 2.5 2.86739 2.5 3V13C2.5 13.1326 2.55268 13.2598 2.64645 13.3536C2.74021 13.4473 2.86739 13.5 3 13.5H13C13.1326 13.5 13.2598 13.4473 13.3536 13.3536C13.4473 13.2598 13.5 13.1326 13.5 13V8C13.5 7.86739 13.5527 7.74021 13.6464 7.64645C13.7402 7.55268 13.8674 7.5 14 7.5C14.1326 7.5 14.2598 7.55268 14.3536 7.64645C14.4473 7.74021 14.5 7.86739 14.5 8V13C14.5 13.3978 14.342 13.7794 14.0607 14.0607C13.7794 14.342 13.3978 14.5 13 14.5H3Z" fill="#0E0E0E"/>
<path d="M8.3539 10.3539L15.3539 3.3539C15.4004 3.30741 15.4373 3.25222 15.4624 3.19148C15.4876 3.13074 15.5005 3.06564 15.5005 2.9999C15.5005 2.93416 15.4876 2.86906 15.4624 2.80832C15.4373 2.74758 15.4004 2.69239 15.3539 2.6459C15.3074 2.59941 15.2522 2.56254 15.1915 2.53738C15.1307 2.51222 15.0656 2.49927 14.9999 2.49927C14.9342 2.49927 14.8691 2.51222 14.8083 2.53738C14.7476 2.56254 14.6924 2.59941 14.6459 2.6459L7.9999 9.2929L5.3539 6.6459C5.30741 6.59941 5.25222 6.56253 5.19148 6.53737C5.13074 6.51222 5.06564 6.49927 4.9999 6.49927C4.93416 6.49927 4.86906 6.51222 4.80832 6.53737C4.74758 6.56253 4.69239 6.59941 4.6459 6.6459C4.59941 6.69239 4.56254 6.74758 4.53738 6.80831C4.51222 6.86905 4.49927 6.93415 4.49927 6.9999C4.49927 7.06564 4.51222 7.13074 4.53738 7.19148C4.56254 7.25222 4.59941 7.30741 4.6459 7.3539L7.6459 10.3539C7.69234 10.4005 7.74752 10.4374 7.80827 10.4626C7.86901 10.4878 7.93413 10.5008 7.9999 10.5008C8.06567 10.5008 8.13079 10.4878 8.19153 10.4626C8.25228 10.4374 8.30745 10.4005 8.3539 10.3539Z" fill="#0E0E0E"/>
</svg>
